<mxfile host="app.diagrams.net" modified="2022-07-14T13:52:18.702Z" agent="5.0 (Windows NT 10.0; Win64; x64) AppleWebKit/537.36 (KHTML, like Gecko) Chrome/103.0.5060.114 Safari/537.36 Edg/103.0.1264.49" etag="FFCKPs-NkDe16KyJWAcI" version="20.1.1" type="github">
  <diagram id="6t7eUEGGgur25yPPoFsE" name="Page-1">
    <mxGraphModel dx="1374" dy="1589" grid="1" gridSize="10" guides="1" tooltips="1" connect="1" arrows="1" fold="1" page="1" pageScale="1" pageWidth="1169" pageHeight="827" math="0" shadow="0">
      <root>
        <mxCell id="0" />
        <mxCell id="1" parent="0" />
        <mxCell id="QmXcPvACowvX1DXjFAPn-130" value="Underlying power grid network" style="rounded=0;whiteSpace=wrap;html=1;fillColor=#66B2FF;fontStyle=1;fontSize=15;strokeColor=none;" parent="1" vertex="1">
          <mxGeometry x="99" y="839" width="921" height="41" as="geometry" />
        </mxCell>
        <mxCell id="QmXcPvACowvX1DXjFAPn-82" value="" style="rounded=0;whiteSpace=wrap;html=1;fillColor=#f5f5f5;strokeColor=#666666;fontColor=#333333;fontStyle=1;fontSize=11;" parent="1" vertex="1">
          <mxGeometry x="99" y="-400" width="920" height="250" as="geometry" />
        </mxCell>
        <mxCell id="QmXcPvACowvX1DXjFAPn-58" value="" style="rounded=0;whiteSpace=wrap;html=1;fillColor=#f8cecc;strokeColor=#b85450;fontStyle=1;fontSize=11;" parent="1" vertex="1">
          <mxGeometry x="99" y="-150" width="920" height="490" as="geometry" />
        </mxCell>
        <mxCell id="QmXcPvACowvX1DXjFAPn-55" value="" style="rounded=0;whiteSpace=wrap;html=1;fillColor=#dae8fc;strokeColor=#6c8ebf;fontStyle=1;fontSize=11;" parent="1" vertex="1">
          <mxGeometry x="99" y="340" width="920" height="338.5" as="geometry" />
        </mxCell>
        <mxCell id="QmXcPvACowvX1DXjFAPn-54" value="" style="rounded=0;whiteSpace=wrap;html=1;fillColor=#d5e8d4;strokeColor=#82b366;fontStyle=1;fontSize=11;" parent="1" vertex="1">
          <mxGeometry x="99" y="679" width="920" height="160" as="geometry" />
        </mxCell>
        <mxCell id="QmXcPvACowvX1DXjFAPn-4" value="Sensor" style="sketch=0;outlineConnect=0;fontColor=#232F3E;gradientColor=none;strokeColor=#232F3E;fillColor=#ffffff;dashed=0;verticalLabelPosition=bottom;verticalAlign=top;align=center;html=1;fontSize=11;fontStyle=1;aspect=fixed;shape=mxgraph.aws4.resourceIcon;resIcon=mxgraph.aws4.sensor;" parent="1" vertex="1">
          <mxGeometry x="407.9" y="766" width="60" height="60" as="geometry" />
        </mxCell>
        <mxCell id="QmXcPvACowvX1DXjFAPn-5" value="Sensor" style="sketch=0;outlineConnect=0;fontColor=#232F3E;gradientColor=none;strokeColor=#232F3E;fillColor=#ffffff;dashed=0;verticalLabelPosition=bottom;verticalAlign=top;align=center;html=1;fontSize=11;fontStyle=1;aspect=fixed;shape=mxgraph.aws4.resourceIcon;resIcon=mxgraph.aws4.sensor;" parent="1" vertex="1">
          <mxGeometry x="880" y="766" width="60" height="60" as="geometry" />
        </mxCell>
        <mxCell id="QmXcPvACowvX1DXjFAPn-6" value="Sensor" style="sketch=0;outlineConnect=0;fontColor=#232F3E;gradientColor=none;strokeColor=#232F3E;fillColor=#ffffff;dashed=0;verticalLabelPosition=bottom;verticalAlign=top;align=center;html=1;fontSize=11;fontStyle=1;aspect=fixed;shape=mxgraph.aws4.resourceIcon;resIcon=mxgraph.aws4.sensor;" parent="1" vertex="1">
          <mxGeometry x="688" y="765" width="60" height="60" as="geometry" />
        </mxCell>
        <mxCell id="QmXcPvACowvX1DXjFAPn-34" style="edgeStyle=orthogonalEdgeStyle;rounded=0;orthogonalLoop=1;jettySize=auto;html=1;strokeWidth=2;fontStyle=1;fontSize=11;" parent="1" source="QmXcPvACowvX1DXjFAPn-20" target="QmXcPvACowvX1DXjFAPn-30" edge="1">
          <mxGeometry relative="1" as="geometry">
            <Array as="points">
              <mxPoint x="440" y="618" />
            </Array>
          </mxGeometry>
        </mxCell>
        <mxCell id="QmXcPvACowvX1DXjFAPn-20" value="IED Fusion layer&lt;br style=&quot;font-size: 11px;&quot;&gt;(Data collection and fusion point)" style="shape=process;whiteSpace=wrap;html=1;backgroundOutline=1;fontStyle=1;fontSize=11;" parent="1" vertex="1">
          <mxGeometry x="383" y="699.9999999999998" width="120" height="60" as="geometry" />
        </mxCell>
        <mxCell id="QmXcPvACowvX1DXjFAPn-35" style="edgeStyle=orthogonalEdgeStyle;rounded=0;orthogonalLoop=1;jettySize=auto;html=1;strokeWidth=2;entryX=1.014;entryY=0.5;entryDx=0;entryDy=0;entryPerimeter=0;fontStyle=1;fontSize=11;" parent="1" source="QmXcPvACowvX1DXjFAPn-21" target="QmXcPvACowvX1DXjFAPn-31" edge="1">
          <mxGeometry relative="1" as="geometry">
            <Array as="points">
              <mxPoint x="715" y="598" />
            </Array>
          </mxGeometry>
        </mxCell>
        <mxCell id="QmXcPvACowvX1DXjFAPn-21" value="IED Fusion layer&lt;br style=&quot;font-size: 11px;&quot;&gt;(Data collection and fusion point)" style="shape=process;whiteSpace=wrap;html=1;backgroundOutline=1;fontStyle=1;fontSize=11;" parent="1" vertex="1">
          <mxGeometry x="655" y="699.9999999999998" width="120" height="60" as="geometry" />
        </mxCell>
        <mxCell id="QmXcPvACowvX1DXjFAPn-36" style="edgeStyle=orthogonalEdgeStyle;rounded=0;orthogonalLoop=1;jettySize=auto;html=1;strokeWidth=2;fontStyle=1;fontSize=11;" parent="1" source="QmXcPvACowvX1DXjFAPn-23" target="QmXcPvACowvX1DXjFAPn-32" edge="1">
          <mxGeometry relative="1" as="geometry">
            <Array as="points">
              <mxPoint x="910" y="578" />
            </Array>
          </mxGeometry>
        </mxCell>
        <mxCell id="QmXcPvACowvX1DXjFAPn-23" value="IED Fusion layer&lt;br style=&quot;font-size: 11px;&quot;&gt;(Data collection and fusion point)" style="shape=process;whiteSpace=wrap;html=1;backgroundOutline=1;fontStyle=1;fontSize=11;" parent="1" vertex="1">
          <mxGeometry x="850" y="699.9999999999998" width="120" height="60" as="geometry" />
        </mxCell>
        <mxCell id="QmXcPvACowvX1DXjFAPn-30" value="Switch Rack&lt;br style=&quot;font-size: 11px;&quot;&gt;(Forwarding Devices)" style="html=1;verticalLabelPosition=bottom;verticalAlign=top;outlineConnect=0;shadow=0;dashed=0;shape=mxgraph.rack.hpe_aruba.switches.j9773a_2530_24g_poeplus_switch;fontStyle=1;fontSize=11;" parent="1" vertex="1">
          <mxGeometry x="526" y="610" width="142" height="15" as="geometry" />
        </mxCell>
        <mxCell id="QmXcPvACowvX1DXjFAPn-31" value="" style="html=1;verticalLabelPosition=bottom;verticalAlign=top;outlineConnect=0;shadow=0;dashed=0;shape=mxgraph.rack.hpe_aruba.switches.j9773a_2530_24g_poeplus_switch;fontStyle=1;fontSize=11;" parent="1" vertex="1">
          <mxGeometry x="526" y="590" width="142" height="15" as="geometry" />
        </mxCell>
        <mxCell id="QmXcPvACowvX1DXjFAPn-32" value="" style="html=1;verticalLabelPosition=bottom;verticalAlign=top;outlineConnect=0;shadow=0;dashed=0;shape=mxgraph.rack.hpe_aruba.switches.j9773a_2530_24g_poeplus_switch;fontStyle=1;fontSize=11;" parent="1" vertex="1">
          <mxGeometry x="526" y="570" width="142" height="15" as="geometry" />
        </mxCell>
        <mxCell id="QmXcPvACowvX1DXjFAPn-37" value="R2" style="image;html=1;image=img/lib/clip_art/networking/Router_Icon_128x128.png;fontStyle=1;fontSize=11;" parent="1" vertex="1">
          <mxGeometry x="668" y="440" width="80" height="80" as="geometry" />
        </mxCell>
        <mxCell id="QmXcPvACowvX1DXjFAPn-38" value="R3" style="image;html=1;image=img/lib/clip_art/networking/Router_Icon_128x128.png;fontStyle=1;fontSize=11;" parent="1" vertex="1">
          <mxGeometry x="446" y="430" width="80" height="80" as="geometry" />
        </mxCell>
        <mxCell id="QmXcPvACowvX1DXjFAPn-39" value="R1" style="image;html=1;image=img/lib/clip_art/networking/Router_Icon_128x128.png;fontStyle=1;fontSize=11;" parent="1" vertex="1">
          <mxGeometry x="557" y="333" width="80" height="80" as="geometry" />
        </mxCell>
        <mxCell id="QmXcPvACowvX1DXjFAPn-42" value="" style="endArrow=none;dashed=1;html=1;rounded=0;strokeWidth=2;entryX=0;entryY=0.5;entryDx=0;entryDy=0;exitX=0.75;exitY=0;exitDx=0;exitDy=0;fontStyle=1;fontSize=11;" parent="1" source="QmXcPvACowvX1DXjFAPn-38" target="QmXcPvACowvX1DXjFAPn-39" edge="1">
          <mxGeometry width="50" height="50" relative="1" as="geometry">
            <mxPoint x="480" y="461" as="sourcePoint" />
            <mxPoint x="560" y="390" as="targetPoint" />
          </mxGeometry>
        </mxCell>
        <mxCell id="QmXcPvACowvX1DXjFAPn-43" value="" style="endArrow=none;dashed=1;html=1;rounded=0;strokeWidth=2;entryX=1;entryY=0.75;entryDx=0;entryDy=0;fontStyle=1;fontSize=11;" parent="1" source="QmXcPvACowvX1DXjFAPn-37" target="QmXcPvACowvX1DXjFAPn-39" edge="1">
          <mxGeometry width="50" height="50" relative="1" as="geometry">
            <mxPoint x="490" y="471" as="sourcePoint" />
            <mxPoint x="585" y="395.7037037037037" as="targetPoint" />
          </mxGeometry>
        </mxCell>
        <mxCell id="QmXcPvACowvX1DXjFAPn-44" value="" style="endArrow=none;dashed=1;html=1;rounded=0;strokeWidth=2;exitX=1;exitY=0.5;exitDx=0;exitDy=0;entryX=0;entryY=0.5;entryDx=0;entryDy=0;fontStyle=1;fontSize=11;" parent="1" source="QmXcPvACowvX1DXjFAPn-38" target="QmXcPvACowvX1DXjFAPn-37" edge="1">
          <mxGeometry width="50" height="50" relative="1" as="geometry">
            <mxPoint x="500" y="481" as="sourcePoint" />
            <mxPoint x="670" y="490" as="targetPoint" />
          </mxGeometry>
        </mxCell>
        <mxCell id="QmXcPvACowvX1DXjFAPn-45" value="" style="endArrow=classic;startArrow=classic;html=1;rounded=0;strokeWidth=2;fontStyle=1;fontSize=11;" parent="1" edge="1">
          <mxGeometry width="50" height="50" relative="1" as="geometry">
            <mxPoint x="605.5384615384617" y="559" as="sourcePoint" />
            <mxPoint x="668" y="504.1351351351352" as="targetPoint" />
          </mxGeometry>
        </mxCell>
        <mxCell id="QmXcPvACowvX1DXjFAPn-46" value="L2 - L3 &lt;br style=&quot;font-size: 11px;&quot;&gt;communication" style="edgeLabel;html=1;align=center;verticalAlign=middle;resizable=0;points=[];fontStyle=1;fontSize=11;" parent="QmXcPvACowvX1DXjFAPn-45" vertex="1" connectable="0">
          <mxGeometry x="-0.3865" y="-1" relative="1" as="geometry">
            <mxPoint y="-11" as="offset" />
          </mxGeometry>
        </mxCell>
        <mxCell id="QmXcPvACowvX1DXjFAPn-47" value="SDN Controller" style="shape=mxgraph.cisco.misc.service_control;html=1;pointerEvents=1;dashed=0;fillColor=#036897;strokeColor=#ffffff;strokeWidth=2;verticalLabelPosition=bottom;verticalAlign=top;align=center;outlineConnect=0;fontStyle=1;fontSize=11;" parent="1" vertex="1">
          <mxGeometry x="500" y="180.5" width="194" height="80" as="geometry" />
        </mxCell>
        <mxCell id="QmXcPvACowvX1DXjFAPn-49" value="" style="edgeStyle=orthogonalEdgeStyle;rounded=0;orthogonalLoop=1;jettySize=auto;html=1;strokeWidth=2;fontStyle=1;fontSize=11;" parent="1" source="QmXcPvACowvX1DXjFAPn-48" target="QmXcPvACowvX1DXjFAPn-47" edge="1">
          <mxGeometry relative="1" as="geometry" />
        </mxCell>
        <mxCell id="QmXcPvACowvX1DXjFAPn-48" value="Security&lt;br style=&quot;font-size: 11px;&quot;&gt;component" style="shape=image;html=1;verticalAlign=top;verticalLabelPosition=bottom;labelBackgroundColor=#ffffff;imageAspect=0;aspect=fixed;image=https://cdn2.iconfinder.com/data/icons/nasty/60/police_riot_control-128.png;fontStyle=1;fontSize=11;" parent="1" vertex="1">
          <mxGeometry x="330" y="176" width="89" height="89" as="geometry" />
        </mxCell>
        <mxCell id="QmXcPvACowvX1DXjFAPn-50" value="" style="endArrow=classic;startArrow=classic;html=1;rounded=0;strokeWidth=2;entryX=0.5;entryY=1;entryDx=0;entryDy=0;entryPerimeter=0;exitX=0.5;exitY=0;exitDx=0;exitDy=0;fontStyle=1;fontSize=11;" parent="1" source="QmXcPvACowvX1DXjFAPn-39" target="QmXcPvACowvX1DXjFAPn-47" edge="1">
          <mxGeometry width="50" height="50" relative="1" as="geometry">
            <mxPoint x="570" y="340" as="sourcePoint" />
            <mxPoint x="620" y="290" as="targetPoint" />
          </mxGeometry>
        </mxCell>
        <mxCell id="QmXcPvACowvX1DXjFAPn-94" value="" style="edgeStyle=orthogonalEdgeStyle;rounded=0;orthogonalLoop=1;jettySize=auto;html=1;strokeWidth=1;fontStyle=1;fontSize=11;" parent="1" source="QmXcPvACowvX1DXjFAPn-51" target="QmXcPvACowvX1DXjFAPn-63" edge="1">
          <mxGeometry relative="1" as="geometry" />
        </mxCell>
        <mxCell id="QmXcPvACowvX1DXjFAPn-51" value="" style="image;html=1;image=img/lib/clip_art/computers/Network_128x128.png;fontStyle=1;fontSize=11;" parent="1" vertex="1">
          <mxGeometry x="366" y="-340" width="80" height="80" as="geometry" />
        </mxCell>
        <mxCell id="QmXcPvACowvX1DXjFAPn-56" value="Perception layer" style="text;html=1;align=center;verticalAlign=middle;resizable=0;points=[];autosize=1;strokeColor=none;fillColor=none;fontStyle=1;fontSize=11;" parent="1" vertex="1">
          <mxGeometry x="125" y="792" width="110" height="30" as="geometry" />
        </mxCell>
        <mxCell id="QmXcPvACowvX1DXjFAPn-57" value="Communication layer&lt;br style=&quot;font-size: 11px;&quot;&gt;Data plane" style="text;html=1;align=center;verticalAlign=middle;resizable=0;points=[];autosize=1;strokeColor=none;fillColor=none;fontStyle=1;fontSize=11;" parent="1" vertex="1">
          <mxGeometry x="110" y="620" width="140" height="40" as="geometry" />
        </mxCell>
        <mxCell id="QmXcPvACowvX1DXjFAPn-59" value="Communication layer&lt;br style=&quot;font-size: 11px;&quot;&gt;Control plane" style="text;html=1;align=center;verticalAlign=middle;resizable=0;points=[];autosize=1;strokeColor=none;fillColor=none;fontStyle=1;fontSize=11;" parent="1" vertex="1">
          <mxGeometry x="110" y="280" width="140" height="40" as="geometry" />
        </mxCell>
        <mxCell id="QmXcPvACowvX1DXjFAPn-60" value="SDN Controller" style="shape=mxgraph.cisco.misc.service_control;html=1;pointerEvents=1;dashed=0;fillColor=#036897;strokeColor=#ffffff;strokeWidth=2;verticalLabelPosition=bottom;verticalAlign=top;align=center;outlineConnect=0;fontStyle=1;fontSize=11;" parent="1" vertex="1">
          <mxGeometry x="309" y="-30" width="110" height="50" as="geometry" />
        </mxCell>
        <mxCell id="QmXcPvACowvX1DXjFAPn-61" value="SDN Controller" style="shape=mxgraph.cisco.misc.service_control;html=1;pointerEvents=1;dashed=0;fillColor=#036897;strokeColor=#ffffff;strokeWidth=2;verticalLabelPosition=bottom;verticalAlign=top;align=center;outlineConnect=0;fontStyle=1;fontSize=11;" parent="1" vertex="1">
          <mxGeometry x="448" y="60" width="110" height="50" as="geometry" />
        </mxCell>
        <mxCell id="QmXcPvACowvX1DXjFAPn-62" value="SDN Controller" style="shape=mxgraph.cisco.misc.service_control;html=1;pointerEvents=1;dashed=0;fillColor=#036897;strokeColor=#ffffff;strokeWidth=2;verticalLabelPosition=bottom;verticalAlign=top;align=center;outlineConnect=0;fontStyle=1;fontSize=11;" parent="1" vertex="1">
          <mxGeometry x="558" y="-30" width="110" height="50" as="geometry" />
        </mxCell>
        <mxCell id="QmXcPvACowvX1DXjFAPn-63" value="SDN Controller" style="shape=mxgraph.cisco.misc.service_control;html=1;pointerEvents=1;dashed=0;fillColor=#036897;strokeColor=#ffffff;strokeWidth=2;verticalLabelPosition=bottom;verticalAlign=top;align=center;outlineConnect=0;fontStyle=1;fontSize=11;" parent="1" vertex="1">
          <mxGeometry x="448" y="-130" width="110" height="50" as="geometry" />
        </mxCell>
        <mxCell id="QmXcPvACowvX1DXjFAPn-65" value="" style="endArrow=none;dashed=1;html=1;rounded=0;strokeWidth=2;fontStyle=1;fontSize=11;" parent="1" source="QmXcPvACowvX1DXjFAPn-63" target="QmXcPvACowvX1DXjFAPn-62" edge="1">
          <mxGeometry width="50" height="50" relative="1" as="geometry">
            <mxPoint x="490" y="10" as="sourcePoint" />
            <mxPoint x="540" y="-40" as="targetPoint" />
          </mxGeometry>
        </mxCell>
        <mxCell id="QmXcPvACowvX1DXjFAPn-66" value="" style="endArrow=none;dashed=1;html=1;rounded=0;strokeWidth=2;fontStyle=1;fontSize=11;" parent="1" source="QmXcPvACowvX1DXjFAPn-61" target="QmXcPvACowvX1DXjFAPn-62" edge="1">
          <mxGeometry width="50" height="50" relative="1" as="geometry">
            <mxPoint x="490" y="10" as="sourcePoint" />
            <mxPoint x="540" y="-40" as="targetPoint" />
          </mxGeometry>
        </mxCell>
        <mxCell id="QmXcPvACowvX1DXjFAPn-67" value="" style="endArrow=none;dashed=1;html=1;rounded=0;strokeWidth=2;fontStyle=1;fontSize=11;" parent="1" source="QmXcPvACowvX1DXjFAPn-60" target="QmXcPvACowvX1DXjFAPn-61" edge="1">
          <mxGeometry width="50" height="50" relative="1" as="geometry">
            <mxPoint x="490" y="10" as="sourcePoint" />
            <mxPoint x="540" y="-40" as="targetPoint" />
          </mxGeometry>
        </mxCell>
        <mxCell id="QmXcPvACowvX1DXjFAPn-68" value="" style="endArrow=none;dashed=1;html=1;rounded=0;strokeWidth=2;fontStyle=1;fontSize=11;" parent="1" source="QmXcPvACowvX1DXjFAPn-60" target="QmXcPvACowvX1DXjFAPn-63" edge="1">
          <mxGeometry width="50" height="50" relative="1" as="geometry">
            <mxPoint x="490" y="10" as="sourcePoint" />
            <mxPoint x="540" y="-40" as="targetPoint" />
          </mxGeometry>
        </mxCell>
        <mxCell id="QmXcPvACowvX1DXjFAPn-69" value="" style="endArrow=none;dashed=1;html=1;rounded=0;strokeWidth=2;fontStyle=1;fontSize=11;" parent="1" source="QmXcPvACowvX1DXjFAPn-61" target="QmXcPvACowvX1DXjFAPn-47" edge="1">
          <mxGeometry width="50" height="50" relative="1" as="geometry">
            <mxPoint x="490" y="10" as="sourcePoint" />
            <mxPoint x="540" y="-40" as="targetPoint" />
          </mxGeometry>
        </mxCell>
        <mxCell id="QmXcPvACowvX1DXjFAPn-74" value="Performance algorithm models" style="shape=rect;rounded=1;whiteSpace=wrap;html=1;shadow=0;strokeColor=#666666;fillColor=#f5f5f5;arcSize=30;fontSize=11;spacingLeft=42;fontStyle=1;fontColor=#333333;align=left;" parent="1" vertex="1">
          <mxGeometry x="775" y="-10" width="205" height="40" as="geometry" />
        </mxCell>
        <mxCell id="QmXcPvACowvX1DXjFAPn-75" value="1" style="shape=ellipse;perimeter=ellipsePerimeter;fontSize=11;fontStyle=1;shadow=0;strokeColor=#ffffff;fillColor=#10739E;strokeWidth=4;fontColor=#ffffff;align=center;" parent="1" vertex="1">
          <mxGeometry x="745" y="-20" width="60" height="60" as="geometry" />
        </mxCell>
        <mxCell id="QmXcPvACowvX1DXjFAPn-76" value="Energy consumption models" style="shape=rect;rounded=1;whiteSpace=wrap;html=1;shadow=0;strokeColor=#666666;fillColor=#f5f5f5;arcSize=30;fontSize=11;spacingLeft=42;fontStyle=1;fontColor=#333333;align=left;" parent="1" vertex="1">
          <mxGeometry x="778" y="60" width="202" height="40" as="geometry" />
        </mxCell>
        <mxCell id="QmXcPvACowvX1DXjFAPn-77" value="2" style="shape=ellipse;perimeter=ellipsePerimeter;fontSize=11;fontStyle=1;shadow=0;strokeColor=#ffffff;fillColor=#10739E;strokeWidth=4;fontColor=#ffffff;align=center;" parent="1" vertex="1">
          <mxGeometry x="748" y="50" width="60" height="60" as="geometry" />
        </mxCell>
        <mxCell id="QmXcPvACowvX1DXjFAPn-78" value="Security policies &amp;amp; Access lists" style="shape=rect;rounded=1;whiteSpace=wrap;html=1;shadow=0;strokeColor=#666666;fillColor=#f5f5f5;arcSize=30;fontSize=11;spacingLeft=42;fontStyle=1;fontColor=#333333;align=left;" parent="1" vertex="1">
          <mxGeometry x="778" y="130.5" width="202" height="40" as="geometry" />
        </mxCell>
        <mxCell id="QmXcPvACowvX1DXjFAPn-79" value="3" style="shape=ellipse;perimeter=ellipsePerimeter;fontSize=11;fontStyle=1;shadow=0;strokeColor=#ffffff;fillColor=#10739E;strokeWidth=4;fontColor=#ffffff;align=center;" parent="1" vertex="1">
          <mxGeometry x="748" y="120.5" width="60" height="60" as="geometry" />
        </mxCell>
        <mxCell id="QmXcPvACowvX1DXjFAPn-80" value="Traffic optimization &amp;amp; QoS provisioning" style="shape=rect;rounded=1;whiteSpace=wrap;html=1;shadow=0;strokeColor=#666666;fillColor=#f5f5f5;arcSize=30;fontSize=11;spacingLeft=42;fontStyle=1;fontColor=#333333;align=left;" parent="1" vertex="1">
          <mxGeometry x="778" y="200.5" width="202" height="40" as="geometry" />
        </mxCell>
        <mxCell id="QmXcPvACowvX1DXjFAPn-81" value="4" style="shape=ellipse;perimeter=ellipsePerimeter;fontSize=11;fontStyle=1;shadow=0;strokeColor=#ffffff;fillColor=#10739E;strokeWidth=4;fontColor=#ffffff;align=center;" parent="1" vertex="1">
          <mxGeometry x="748" y="190.5" width="60" height="60" as="geometry" />
        </mxCell>
        <mxCell id="QmXcPvACowvX1DXjFAPn-91" value="Application layer&lt;br style=&quot;font-size: 11px;&quot;&gt;(Management plane)" style="text;html=1;align=center;verticalAlign=middle;resizable=0;points=[];autosize=1;strokeColor=none;fillColor=none;fontStyle=1;fontSize=11;" parent="1" vertex="1">
          <mxGeometry x="105" y="-190" width="130" height="40" as="geometry" />
        </mxCell>
        <mxCell id="QmXcPvACowvX1DXjFAPn-92" value="Network Engineer&lt;br style=&quot;font-size: 11px;&quot;&gt;" style="shape=mxgraph.cisco.people.androgenous_person;html=1;pointerEvents=1;dashed=0;fillColor=#036897;strokeColor=#ffffff;strokeWidth=2;verticalLabelPosition=bottom;verticalAlign=top;align=center;outlineConnect=0;fontStyle=1;fontSize=11;" parent="1" vertex="1">
          <mxGeometry x="210" y="-380" width="40" height="50" as="geometry" />
        </mxCell>
        <mxCell id="QmXcPvACowvX1DXjFAPn-93" value="Application Security&lt;br style=&quot;font-size: 11px;&quot;&gt;Engineer" style="shape=mxgraph.cisco.people.androgenous_person;html=1;pointerEvents=1;dashed=0;fillColor=#036897;strokeColor=#ffffff;strokeWidth=2;verticalLabelPosition=bottom;verticalAlign=top;align=center;outlineConnect=0;fontStyle=1;fontSize=11;" parent="1" vertex="1">
          <mxGeometry x="210" y="-290" width="39" height="52" as="geometry" />
        </mxCell>
        <mxCell id="QmXcPvACowvX1DXjFAPn-96" value="" style="endArrow=classic;startArrow=classic;html=1;rounded=0;strokeWidth=1;fontStyle=1;fontSize=11;" parent="1" source="QmXcPvACowvX1DXjFAPn-92" target="QmXcPvACowvX1DXjFAPn-51" edge="1">
          <mxGeometry width="50" height="50" relative="1" as="geometry">
            <mxPoint x="490" y="-60" as="sourcePoint" />
            <mxPoint x="540" y="-110" as="targetPoint" />
          </mxGeometry>
        </mxCell>
        <mxCell id="QmXcPvACowvX1DXjFAPn-97" value="" style="endArrow=classic;startArrow=classic;html=1;rounded=0;strokeWidth=1;entryX=0;entryY=0.5;entryDx=0;entryDy=0;fontStyle=1;fontSize=11;" parent="1" source="QmXcPvACowvX1DXjFAPn-93" target="QmXcPvACowvX1DXjFAPn-51" edge="1">
          <mxGeometry width="50" height="50" relative="1" as="geometry">
            <mxPoint x="490" y="-70" as="sourcePoint" />
            <mxPoint x="540" y="-120" as="targetPoint" />
          </mxGeometry>
        </mxCell>
        <mxCell id="QmXcPvACowvX1DXjFAPn-118" value="" style="shape=image;html=1;verticalLabelPosition=bottom;verticalAlign=top;imageAspect=0;image=img/clipart/Gear_128x128.png;fontStyle=1;fontSize=11;" parent="1" vertex="1">
          <mxGeometry x="256" y="-35" width="50" height="60" as="geometry" />
        </mxCell>
        <mxCell id="QmXcPvACowvX1DXjFAPn-119" value="" style="shape=image;html=1;verticalLabelPosition=bottom;verticalAlign=top;imageAspect=0;image=img/clipart/Gear_128x128.png;fontStyle=1;fontSize=11;" parent="1" vertex="1">
          <mxGeometry x="565" y="-130" width="50" height="60" as="geometry" />
        </mxCell>
        <mxCell id="QmXcPvACowvX1DXjFAPn-120" value="" style="shape=image;html=1;verticalLabelPosition=bottom;verticalAlign=top;imageAspect=0;image=img/clipart/Gear_128x128.png;fontStyle=1;fontSize=11;" parent="1" vertex="1">
          <mxGeometry x="674" y="-36" width="50" height="60" as="geometry" />
        </mxCell>
        <mxCell id="QmXcPvACowvX1DXjFAPn-121" value="" style="shape=image;html=1;verticalLabelPosition=bottom;verticalAlign=top;imageAspect=1;aspect=fixed;image=img/clipart/Gear_128x128.png;fontStyle=1;fontSize=11;" parent="1" vertex="1">
          <mxGeometry x="563" y="60" width="52" height="61" as="geometry" />
        </mxCell>
        <mxCell id="QmXcPvACowvX1DXjFAPn-123" value="" style="sketch=0;outlineConnect=0;fontColor=#232F3E;gradientColor=none;fillColor=#66B2FF;strokeColor=none;dashed=0;verticalLabelPosition=bottom;verticalAlign=top;align=center;html=1;fontSize=11;fontStyle=1;aspect=fixed;pointerEvents=1;shape=mxgraph.aws4.file_system;" parent="1" vertex="1">
          <mxGeometry x="313.97" y="-360" width="32.05" height="30" as="geometry" />
        </mxCell>
        <mxCell id="QmXcPvACowvX1DXjFAPn-124" value="" style="sketch=0;pointerEvents=1;shadow=0;dashed=0;html=1;strokeColor=none;fillColor=#EA6B66;labelPosition=center;verticalLabelPosition=bottom;verticalAlign=top;align=center;outlineConnect=0;shape=mxgraph.veeam2.file;fontStyle=1;fontSize=11;" parent="1" vertex="1">
          <mxGeometry x="320" y="-283" width="20" height="23" as="geometry" />
        </mxCell>
        <mxCell id="QmXcPvACowvX1DXjFAPn-125" value="" style="sketch=0;pointerEvents=1;shadow=0;dashed=0;html=1;strokeColor=none;fillColor=#005F4B;labelPosition=center;verticalLabelPosition=bottom;verticalAlign=top;align=center;outlineConnect=0;shape=mxgraph.veeam2.file;fontStyle=1;fontSize=11;" parent="1" vertex="1">
          <mxGeometry x="320" y="-275.5" width="20" height="23" as="geometry" />
        </mxCell>
        <mxCell id="QmXcPvACowvX1DXjFAPn-126" value="" style="sketch=0;pointerEvents=1;shadow=0;dashed=0;html=1;strokeColor=none;fillColor=#9999FF;labelPosition=center;verticalLabelPosition=bottom;verticalAlign=top;align=center;outlineConnect=0;shape=mxgraph.veeam2.file;fontStyle=1;fontSize=11;" parent="1" vertex="1">
          <mxGeometry x="320.05" y="-268.5" width="20" height="23" as="geometry" />
        </mxCell>
        <mxCell id="QmXcPvACowvX1DXjFAPn-128" value="Cloud&amp;nbsp;&lt;br style=&quot;font-size: 11px;&quot;&gt;(Public/private)" style="aspect=fixed;html=1;points=[];align=center;image;fontSize=11;image=img/lib/azure2/compute/Cloud_Services_Classic.svg;fillColor=#66B2FF;fontStyle=1" parent="1" vertex="1">
          <mxGeometry x="896.9200000000001" y="-140" width="83.08" height="60" as="geometry" />
        </mxCell>
        <mxCell id="QmXcPvACowvX1DXjFAPn-127" value="" style="sketch=0;html=1;aspect=fixed;strokeColor=none;shadow=0;align=center;verticalAlign=top;fillColor=#3B8DF1;shape=mxgraph.gcp2.data_access;fontStyle=1;fontSize=11;" parent="1" vertex="1">
          <mxGeometry x="440" y="-360" width="27.9" height="30" as="geometry" />
        </mxCell>
        <mxCell id="QmXcPvACowvX1DXjFAPn-129" value="Data Center and Control" style="pointerEvents=1;shadow=0;dashed=0;html=1;strokeColor=none;fillColor=#4495D1;labelPosition=center;verticalLabelPosition=bottom;verticalAlign=top;align=center;outlineConnect=0;shape=mxgraph.veeam.data_center;fontStyle=1;fontSize=11;" parent="1" vertex="1">
          <mxGeometry x="748" y="-326.5" width="90" height="81" as="geometry" />
        </mxCell>
      </root>
    </mxGraphModel>
  </diagram>
</mxfile>
